<svg width="18" height="14" viewBox="0 0 18 14" fill="none" xmlns="http://www.w3.org/2000/svg">
<path d="M3.50162 14C3.16922 14 2.86827 13.9064 2.59875 13.7192C2.32908 13.5319 2.15043 13.2801 2.06279 12.9637L0.0298802 6.03196C-0.0351545 5.80779 0.00597258 5.60004 0.153261 5.40872C0.300397 5.21755 0.498191 5.12196 0.746645 5.12196H5.07514L8.38891 0.314061C8.46578 0.207081 8.55565 0.127992 8.6585 0.0767955C8.76151 0.0255988 8.87805 0 9.00812 0C9.13819 0 9.25465 0.0284845 9.35751 0.0854519C9.46037 0.142271 9.55023 0.224171 9.62711 0.331152L12.9056 5.12196H17.2447C17.4931 5.12196 17.6939 5.21755 17.8471 5.40872C18.0002 5.60004 18.0383 5.80779 17.9615 6.03196L15.893 12.9637C15.8054 13.2801 15.6268 13.5319 15.3573 13.7192C15.0876 13.9064 14.7866 14 14.4542 14H3.50162ZM3.42529 13.1122H14.5661C14.6961 13.1122 14.8084 13.0752 14.903 13.0012C14.9977 12.9272 15.0628 12.8277 15.0983 12.7025L17.0212 6.00977H0.970115L2.89302 12.7025C2.92853 12.8277 2.99365 12.9272 3.08835 13.0012C3.18291 13.0752 3.29522 13.1122 3.42529 13.1122ZM8.99567 10.4488C9.24289 10.4488 9.45845 10.3603 9.64233 10.1833C9.82621 10.0064 9.91815 9.79891 9.91815 9.56098C9.91815 9.32305 9.82621 9.1156 9.64233 8.93863C9.45845 8.76166 9.24289 8.67318 8.99567 8.67318C8.74845 8.67318 8.53289 8.76166 8.34901 8.93863C8.16513 9.1156 8.07319 9.32305 8.07319 9.56098C8.07319 9.79891 8.16513 10.0064 8.34901 10.1833C8.53289 10.3603 8.74845 10.4488 8.99567 10.4488ZM6.19457 5.12196H11.7915L8.99037 1.01765L6.19457 5.12196Z" fill="white"/>
</svg>
