<svg width="14" height="16" viewBox="0 0 14 16" fill="none" xmlns="http://www.w3.org/2000/svg">
<path d="M2.6155 16C2.168 16 1.78683 15.8404 1.472 15.5211C1.15733 15.2017 1 14.8149 1 14.3609V1.79514H0V0.780507H4V0H10V0.780507H14V1.79514H13V14.3609C13 14.8279 12.8458 15.2179 12.5375 15.5307C12.2292 15.8436 11.8448 16 11.3845 16H2.6155ZM12 1.79514H2V14.3609C2 14.543 2.05767 14.6926 2.173 14.8098C2.2885 14.9269 2.436 14.9854 2.6155 14.9854H11.3845C11.5385 14.9854 11.6796 14.9203 11.8077 14.7903C11.9359 14.6603 12 14.5171 12 14.3609V1.79514ZM4.80775 12.9561H5.80775V3.82441H4.80775V12.9561ZM8.19225 12.9561H9.19225V3.82441H8.19225V12.9561Z" fill="#404040"/>
</svg>
